<mxfile host="app.diagrams.net" agent="Mozilla/5.0 (Windows NT 10.0; Win64; x64) AppleWebKit/537.36 (KHTML, like Gecko) Chrome/134.0.0.0 Safari/537.36 Edg/134.0.0.0" version="28.0.7">
  <diagram name="第 1 页" id="vGTfuLt5KCfyb1zNglGH">
    <mxGraphModel dx="1034" dy="544" grid="1" gridSize="10" guides="1" tooltips="1" connect="1" arrows="1" fold="1" page="1" pageScale="1" pageWidth="827" pageHeight="1169" math="0" shadow="0">
      <root>
        <mxCell id="0" />
        <mxCell id="1" parent="0" />
        <mxCell id="AiWdXyPrwk5T1UN9o0yQ-1" value="&lt;font&gt;外部系统&lt;/font&gt;" style="rounded=0;whiteSpace=wrap;html=1;hachureGap=4;fontFamily=Helvetica;strokeColor=#9673a6;fontSize=14;fillColor=#e1d5e7;" vertex="1" parent="1">
          <mxGeometry x="90" y="150" width="120" height="30" as="geometry" />
        </mxCell>
        <mxCell id="AiWdXyPrwk5T1UN9o0yQ-2" value="&lt;font&gt;外部系统&lt;/font&gt;" style="rounded=0;whiteSpace=wrap;html=1;hachureGap=4;fontFamily=Helvetica;strokeColor=#9673a6;fontSize=14;fillColor=#e1d5e7;" vertex="1" parent="1">
          <mxGeometry x="570" y="150" width="120" height="30" as="geometry" />
        </mxCell>
        <mxCell id="AiWdXyPrwk5T1UN9o0yQ-4" value="&lt;font&gt;车站&lt;/font&gt;" style="rounded=0;whiteSpace=wrap;html=1;hachureGap=4;fontFamily=Helvetica;strokeColor=#9673a6;fontSize=14;fillColor=#e1d5e7;" vertex="1" parent="1">
          <mxGeometry x="320" y="150" width="120" height="30" as="geometry" />
        </mxCell>
        <mxCell id="AiWdXyPrwk5T1UN9o0yQ-34" style="rounded=0;hachureGap=4;orthogonalLoop=1;jettySize=auto;html=1;entryX=0;entryY=0.5;entryDx=0;entryDy=0;fontFamily=Helvetica;endArrow=none;endFill=0;fontSize=14;" edge="1" parent="1" source="AiWdXyPrwk5T1UN9o0yQ-5" target="AiWdXyPrwk5T1UN9o0yQ-11">
          <mxGeometry relative="1" as="geometry" />
        </mxCell>
        <mxCell id="AiWdXyPrwk5T1UN9o0yQ-36" value="&lt;font&gt;iis&lt;/font&gt;" style="edgeLabel;html=1;align=center;verticalAlign=middle;resizable=0;points=[];sketch=1;hachureGap=4;jiggle=2;curveFitting=1;fontFamily=Helvetica;fontSize=14;" vertex="1" connectable="0" parent="AiWdXyPrwk5T1UN9o0yQ-34">
          <mxGeometry x="-0.0372" y="-1" relative="1" as="geometry">
            <mxPoint as="offset" />
          </mxGeometry>
        </mxCell>
        <mxCell id="AiWdXyPrwk5T1UN9o0yQ-5" value="&lt;font&gt;货运集装箱&lt;/font&gt;" style="ellipse;whiteSpace=wrap;html=1;hachureGap=4;fontFamily=Helvetica;fontSize=14;fillColor=#dae8fc;strokeColor=#6c8ebf;" vertex="1" parent="1">
          <mxGeometry x="90" y="230" width="120" height="80" as="geometry" />
        </mxCell>
        <mxCell id="AiWdXyPrwk5T1UN9o0yQ-41" style="rounded=0;hachureGap=4;orthogonalLoop=1;jettySize=auto;html=1;fontFamily=Architects Daughter;fontSource=https%3A%2F%2Ffonts.googleapis.com%2Fcss%3Ffamily%3DArchitects%2BDaughter;endArrow=none;endFill=0;" edge="1" parent="1" source="AiWdXyPrwk5T1UN9o0yQ-7">
          <mxGeometry relative="1" as="geometry">
            <mxPoint x="350" y="390" as="targetPoint" />
          </mxGeometry>
        </mxCell>
        <mxCell id="AiWdXyPrwk5T1UN9o0yQ-7" value="&lt;font&gt;清算运统1&lt;/font&gt;" style="ellipse;whiteSpace=wrap;html=1;hachureGap=4;fontFamily=Helvetica;fontSize=14;fillColor=#dae8fc;strokeColor=#6c8ebf;" vertex="1" parent="1">
          <mxGeometry x="90" y="340" width="120" height="80" as="geometry" />
        </mxCell>
        <mxCell id="AiWdXyPrwk5T1UN9o0yQ-8" value="智能18点" style="ellipse;whiteSpace=wrap;html=1;hachureGap=4;fontFamily=Helvetica;fontSize=14;fillColor=#dae8fc;strokeColor=#6c8ebf;" vertex="1" parent="1">
          <mxGeometry x="90" y="450" width="120" height="80" as="geometry" />
        </mxCell>
        <mxCell id="AiWdXyPrwk5T1UN9o0yQ-11" value="&lt;font&gt;smis2.9应用及服务器&lt;/font&gt;" style="shape=process;whiteSpace=wrap;html=1;backgroundOutline=1;hachureGap=4;fontFamily=Helvetica;fontSize=14;fillColor=#f5f5f5;fontColor=#333333;strokeColor=#666666;" vertex="1" parent="1">
          <mxGeometry x="320" y="250" width="120" height="60" as="geometry" />
        </mxCell>
        <mxCell id="AiWdXyPrwk5T1UN9o0yQ-28" style="rounded=0;hachureGap=4;orthogonalLoop=1;jettySize=auto;html=1;entryX=0.5;entryY=0;entryDx=0;entryDy=0;fontFamily=Helvetica;endArrow=none;endFill=0;fontSize=14;" edge="1" parent="1" source="AiWdXyPrwk5T1UN9o0yQ-12" target="AiWdXyPrwk5T1UN9o0yQ-24">
          <mxGeometry relative="1" as="geometry" />
        </mxCell>
        <mxCell id="AiWdXyPrwk5T1UN9o0yQ-12" value="&lt;font&gt;smis2.9&lt;/font&gt;&lt;div&gt;&lt;font&gt;数据库&lt;/font&gt;&lt;/div&gt;" style="shape=cylinder3;whiteSpace=wrap;html=1;boundedLbl=1;backgroundOutline=1;size=15;hachureGap=4;fontFamily=Helvetica;fontSize=14;fillColor=#fff2cc;strokeColor=#d6b656;" vertex="1" parent="1">
          <mxGeometry x="350" y="350" width="60" height="80" as="geometry" />
        </mxCell>
        <mxCell id="AiWdXyPrwk5T1UN9o0yQ-15" value="" style="endArrow=none;html=1;rounded=0;hachureGap=4;fontFamily=Helvetica;entryX=0.5;entryY=1;entryDx=0;entryDy=0;exitX=0.5;exitY=0;exitDx=0;exitDy=0;exitPerimeter=0;fontSize=14;" edge="1" parent="1" source="AiWdXyPrwk5T1UN9o0yQ-12" target="AiWdXyPrwk5T1UN9o0yQ-11">
          <mxGeometry width="50" height="50" relative="1" as="geometry">
            <mxPoint x="370" y="360" as="sourcePoint" />
            <mxPoint x="420" y="310" as="targetPoint" />
          </mxGeometry>
        </mxCell>
        <mxCell id="AiWdXyPrwk5T1UN9o0yQ-18" value="到报" style="text;html=1;align=center;verticalAlign=middle;resizable=0;points=[];autosize=1;strokeColor=none;fillColor=none;fontFamily=Helvetica;fontSize=14;" vertex="1" parent="1">
          <mxGeometry x="370" y="320" width="50" height="30" as="geometry" />
        </mxCell>
        <mxCell id="AiWdXyPrwk5T1UN9o0yQ-24" value="&lt;font&gt;Sam控制系统&lt;/font&gt;" style="whiteSpace=wrap;html=1;fontFamily=Helvetica;hachureGap=4;fontSize=14;fillColor=#fff2cc;strokeColor=#d6b656;" vertex="1" parent="1">
          <mxGeometry x="320" y="510" width="120" height="30" as="geometry" />
        </mxCell>
        <mxCell id="AiWdXyPrwk5T1UN9o0yQ-29" value="调车计划，&lt;div&gt;作业通知及回执，到发报&lt;/div&gt;" style="text;html=1;align=center;verticalAlign=middle;resizable=0;points=[];autosize=1;strokeColor=none;fillColor=none;fontFamily=Helvetica;fontSize=14;" vertex="1" parent="1">
          <mxGeometry x="290" y="435" width="180" height="50" as="geometry" />
        </mxCell>
        <mxCell id="AiWdXyPrwk5T1UN9o0yQ-30" value="" style="endArrow=none;dashed=1;html=1;dashPattern=1 3;strokeWidth=2;rounded=0;hachureGap=4;fontFamily=Helvetica;fontSize=14;" edge="1" parent="1">
          <mxGeometry width="50" height="50" relative="1" as="geometry">
            <mxPoint x="520" y="680" as="sourcePoint" />
            <mxPoint x="520" y="120" as="targetPoint" />
          </mxGeometry>
        </mxCell>
        <mxCell id="AiWdXyPrwk5T1UN9o0yQ-31" value="" style="endArrow=none;dashed=1;html=1;dashPattern=1 3;strokeWidth=2;rounded=0;hachureGap=4;fontFamily=Helvetica;fontSize=14;" edge="1" parent="1">
          <mxGeometry width="50" height="50" relative="1" as="geometry">
            <mxPoint x="10" y="200" as="sourcePoint" />
            <mxPoint x="760" y="200" as="targetPoint" />
          </mxGeometry>
        </mxCell>
        <mxCell id="AiWdXyPrwk5T1UN9o0yQ-32" value="" style="endArrow=none;dashed=1;html=1;dashPattern=1 3;strokeWidth=2;rounded=0;hachureGap=4;fontFamily=Helvetica;fontSize=14;" edge="1" parent="1">
          <mxGeometry width="50" height="50" relative="1" as="geometry">
            <mxPoint x="240" y="680.7999877929688" as="sourcePoint" />
            <mxPoint x="240" y="120" as="targetPoint" />
          </mxGeometry>
        </mxCell>
        <mxCell id="AiWdXyPrwk5T1UN9o0yQ-35" style="rounded=0;hachureGap=4;orthogonalLoop=1;jettySize=auto;html=1;entryX=0;entryY=0.5;entryDx=0;entryDy=0;entryPerimeter=0;fontFamily=Helvetica;exitX=1;exitY=0.5;exitDx=0;exitDy=0;fontSize=14;endArrow=none;endFill=0;" edge="1" parent="1" source="AiWdXyPrwk5T1UN9o0yQ-5" target="AiWdXyPrwk5T1UN9o0yQ-12">
          <mxGeometry relative="1" as="geometry">
            <mxPoint x="220" y="280" as="sourcePoint" />
          </mxGeometry>
        </mxCell>
        <mxCell id="AiWdXyPrwk5T1UN9o0yQ-42" style="rounded=0;hachureGap=4;orthogonalLoop=1;jettySize=auto;html=1;fontFamily=Architects Daughter;fontSource=https%3A%2F%2Ffonts.googleapis.com%2Fcss%3Ffamily%3DArchitects%2BDaughter;endArrow=none;endFill=0;exitX=1;exitY=0.5;exitDx=0;exitDy=0;" edge="1" parent="1" source="AiWdXyPrwk5T1UN9o0yQ-38">
          <mxGeometry relative="1" as="geometry">
            <mxPoint x="350" y="390" as="targetPoint" />
          </mxGeometry>
        </mxCell>
        <mxCell id="AiWdXyPrwk5T1UN9o0yQ-38" value="&lt;span&gt;全路车流&lt;/span&gt;" style="ellipse;whiteSpace=wrap;html=1;hachureGap=4;fontFamily=Helvetica;fontSize=14;fillColor=#dae8fc;strokeColor=#6c8ebf;" vertex="1" parent="1">
          <mxGeometry x="90" y="560" width="120" height="80" as="geometry" />
        </mxCell>
        <mxCell id="AiWdXyPrwk5T1UN9o0yQ-40" style="rounded=0;hachureGap=4;orthogonalLoop=1;jettySize=auto;html=1;entryX=0;entryY=0.5;entryDx=0;entryDy=0;entryPerimeter=0;fontFamily=Architects Daughter;fontSource=https%3A%2F%2Ffonts.googleapis.com%2Fcss%3Ffamily%3DArchitects%2BDaughter;endArrow=none;endFill=0;exitX=1;exitY=0.5;exitDx=0;exitDy=0;" edge="1" parent="1" source="AiWdXyPrwk5T1UN9o0yQ-8" target="AiWdXyPrwk5T1UN9o0yQ-12">
          <mxGeometry relative="1" as="geometry" />
        </mxCell>
        <mxCell id="AiWdXyPrwk5T1UN9o0yQ-47" style="rounded=0;hachureGap=4;orthogonalLoop=1;jettySize=auto;html=1;entryX=1;entryY=0.5;entryDx=0;entryDy=0;fontFamily=Architects Daughter;fontSource=https%3A%2F%2Ffonts.googleapis.com%2Fcss%3Ffamily%3DArchitects%2BDaughter;endArrow=none;endFill=0;" edge="1" parent="1" source="AiWdXyPrwk5T1UN9o0yQ-43" target="AiWdXyPrwk5T1UN9o0yQ-11">
          <mxGeometry relative="1" as="geometry" />
        </mxCell>
        <mxCell id="AiWdXyPrwk5T1UN9o0yQ-43" value="货管平台" style="ellipse;whiteSpace=wrap;html=1;hachureGap=4;fontFamily=Helvetica;fontSize=14;fillColor=#dae8fc;strokeColor=#6c8ebf;" vertex="1" parent="1">
          <mxGeometry x="570" y="230" width="120" height="80" as="geometry" />
        </mxCell>
        <mxCell id="AiWdXyPrwk5T1UN9o0yQ-51" style="rounded=0;hachureGap=4;orthogonalLoop=1;jettySize=auto;html=1;fontFamily=Architects Daughter;fontSource=https%3A%2F%2Ffonts.googleapis.com%2Fcss%3Ffamily%3DArchitects%2BDaughter;endArrow=none;endFill=0;exitX=0;exitY=0.5;exitDx=0;exitDy=0;" edge="1" parent="1" source="AiWdXyPrwk5T1UN9o0yQ-44">
          <mxGeometry relative="1" as="geometry">
            <mxPoint x="440" y="280" as="targetPoint" />
          </mxGeometry>
        </mxCell>
        <mxCell id="AiWdXyPrwk5T1UN9o0yQ-44" value="&lt;font&gt;确报系统&lt;/font&gt;" style="ellipse;whiteSpace=wrap;html=1;hachureGap=4;fontFamily=Helvetica;fontSize=14;fillColor=#dae8fc;strokeColor=#6c8ebf;" vertex="1" parent="1">
          <mxGeometry x="570" y="450" width="120" height="80" as="geometry" />
        </mxCell>
        <mxCell id="AiWdXyPrwk5T1UN9o0yQ-48" style="rounded=0;hachureGap=4;orthogonalLoop=1;jettySize=auto;html=1;fontFamily=Architects Daughter;fontSource=https%3A%2F%2Ffonts.googleapis.com%2Fcss%3Ffamily%3DArchitects%2BDaughter;endArrow=none;endFill=0;exitX=0;exitY=0.5;exitDx=0;exitDy=0;" edge="1" parent="1" source="AiWdXyPrwk5T1UN9o0yQ-45">
          <mxGeometry relative="1" as="geometry">
            <mxPoint x="440" y="280" as="targetPoint" />
          </mxGeometry>
        </mxCell>
        <mxCell id="AiWdXyPrwk5T1UN9o0yQ-45" value="&lt;font&gt;运输集成平台&lt;/font&gt;" style="ellipse;whiteSpace=wrap;html=1;hachureGap=4;fontFamily=Helvetica;fontSize=14;fillColor=#dae8fc;strokeColor=#6c8ebf;" vertex="1" parent="1">
          <mxGeometry x="570" y="340" width="120" height="80" as="geometry" />
        </mxCell>
        <mxCell id="AiWdXyPrwk5T1UN9o0yQ-49" style="rounded=0;hachureGap=4;orthogonalLoop=1;jettySize=auto;html=1;fontFamily=Architects Daughter;fontSource=https%3A%2F%2Ffonts.googleapis.com%2Fcss%3Ffamily%3DArchitects%2BDaughter;endArrow=none;endFill=0;exitX=0;exitY=0.5;exitDx=0;exitDy=0;" edge="1" parent="1" source="AiWdXyPrwk5T1UN9o0yQ-46">
          <mxGeometry relative="1" as="geometry">
            <mxPoint x="440" y="280" as="targetPoint" />
          </mxGeometry>
        </mxCell>
        <mxCell id="AiWdXyPrwk5T1UN9o0yQ-46" value="&lt;font&gt;电子货票&lt;/font&gt;" style="ellipse;whiteSpace=wrap;html=1;hachureGap=4;fontFamily=Helvetica;fontSize=14;fillColor=#dae8fc;strokeColor=#6c8ebf;" vertex="1" parent="1">
          <mxGeometry x="570" y="560" width="120" height="80" as="geometry" />
        </mxCell>
      </root>
    </mxGraphModel>
  </diagram>
</mxfile>
